<svg xmlns="http://www.w3.org/2000/svg" xmlns:xlink="http://www.w3.org/1999/xlink" fill="none" version="1.1" width="1440" height="750" viewBox="0 0 1440 750"><defs><clipPath id="master_svg0_0_23101"><rect x="0" y="0" width="1440" height="750" rx="0"/></clipPath></defs><g style="mix-blend-mode:passthrough" clip-path="url(#master_svg0_0_23101)"><rect x="0" y="0" width="1440" height="750" rx="0" fill="#F0F3F7" fill-opacity="1"/><g style="opacity:0.800000011920929;mix-blend-mode:passthrough" transform="matrix(0.9925461411476135,-0.12186934053897858,0.12186934053897858,0.9925461411476135,-73.4903750261833,14.019735977675396)"><g style="opacity:0.25;mix-blend-mode:passthrough"><ellipse cx="140.66989707946777" cy="639.4300346374512" rx="21.783048629760742" ry="21.766008377075195" fill="#CFDAE6" fill-opacity="1"/></g><g style="opacity:0.5999999642372131;mix-blend-mode:passthrough"><ellipse cx="83.08248090744019" cy="620.8285269737244" rx="5.217391490936279" ry="5.2133097648620605" fill="#CFDAE6" fill-opacity="1"/></g><g style="opacity:0.44999998807907104;mix-blend-mode:passthrough"><path d="M125.66528481445312,684.88704921875Q125.66528481445312,685.14304921875,125.65268481445312,685.39864921875Q125.64008481445313,685.65434921875,125.61498481445312,685.90904921875Q125.58988481445313,686.16374921875,125.55228481445312,686.41694921875Q125.51468481445312,686.67014921875,125.46478481445313,686.92124921875Q125.41478481445313,687.17224921875,125.35248481445312,687.42054921875Q125.29028481445312,687.66884921875,125.21588481445312,687.91374921875Q125.14158481445313,688.15864921875,125.05528481445313,688.39964921875Q124.96898481445312,688.64064921875,124.87098481445312,688.87714921875Q124.77288481445312,689.11364921875,124.66338481445312,689.34504921875Q124.55388481445313,689.57644921875,124.43308481445312,689.80214921875Q124.31238481445313,690.02784921875,124.18068481445313,690.24744921875Q124.04898481445312,690.46694921875,123.90668481445313,690.67974921875Q123.76438481445312,690.89264921875,123.61178481445313,691.09814921875Q123.45918481445312,691.30374921875,123.29668481445313,691.50164921875Q123.13418481445312,691.69954921875,122.96208481445312,691.88914921875Q122.79008481445312,692.07884921875,122.60898481445312,692.25984921875Q122.42788481445312,692.4407492187499,122.23808481445312,692.61264921875Q122.04828481445313,692.78454921875,121.85018481445313,692.94694921875Q121.65218481445312,693.10934921875,121.44648481445313,693.2618492187501Q121.24068481445312,693.41424921875,121.02768481445312,693.55644921875Q120.81468481445313,693.69864921875,120.59498481445313,693.83024921875Q120.37528481445312,693.96184921875,120.14938481445313,694.08254921875Q119.92348481445313,694.20314921875,119.69188481445312,694.31264921875Q119.46038481445312,694.42204921875,119.22368481445312,694.52004921875Q118.98698481445312,694.61794921875,118.74588481445312,694.70414921875Q118.50468481445313,694.79044921875,118.25948481445313,694.86474921875Q118.01438481445312,694.93904921875,117.76588481445313,695.00124921875Q117.51738481445312,695.06344921875,117.26618481445313,695.11334921875Q117.01498481445313,695.16324921875,116.76158481445313,695.20084921875Q116.50818481445313,695.23834921875,116.25328481445312,695.26344921875Q115.99828481445313,695.28854921875,115.74248481445312,695.30114921875Q115.48658481445312,695.31364921875,115.23048481445312,695.31364921875Q114.97428481445313,695.31364921875,114.71845481445312,695.30114921875Q114.46260481445313,695.28854921875,114.20767481445313,695.26344921875Q113.95275481445313,695.23834921875,113.69936481445312,695.20084921875Q113.44597481445312,695.16324921875,113.19474481445313,695.11334921875Q112.94350481445312,695.06344921875,112.69502481445312,695.00124921875Q112.44653481445313,694.93904921875,112.20140481445313,694.86474921875Q111.95627481445312,694.79044921875,111.71509481445312,694.70414921875Q111.47390481445312,694.61794921875,111.23724481445312,694.52004921875Q111.00058481445312,694.42204921875,110.76902481445313,694.31264921875Q110.53745481445313,694.20314921875,110.31154481445313,694.08254921875Q110.08563481445313,693.96184921875,109.86591481445312,693.83024921875Q109.64620481445313,693.69864921875,109.43321481445312,693.55644921875Q109.22022481445313,693.41424921875,109.01447481445312,693.2618492187501Q108.80872481445313,693.10934921875,108.61071481445313,692.94694921875Q108.41269481445312,692.78454921875,108.22289481445313,692.61264921875Q108.03309481445312,692.4407492187499,107.85196481445313,692.25984921875Q107.67082481445313,692.07884921875,107.49880481445312,691.88914921875Q107.32677481445313,691.69954921875,107.16427481445312,691.50164921875Q107.00176481445313,691.30374921875,106.84917481445312,691.09814921875Q106.69657481445313,690.89264921875,106.55426481445312,690.67974921875Q106.41194481445312,690.46694921875,106.28025481445313,690.24744921875Q106.14856481445312,690.02784921875,106.02781481445312,689.80214921875Q105.90705481445312,689.57644921875,105.79753481445313,689.34504921875Q105.68801281445313,689.11364921875,105.58998481445313,688.87714921875Q105.49195681445312,688.64064921875,105.40565981445313,688.39964921875Q105.31936181445313,688.15864921875,105.24500281445313,687.91374921875Q105.17064381445313,687.66884921875,105.10840181445313,687.42054921875Q105.04616081445313,687.17224921875,104.99618581445313,686.92124921875Q104.94621181445312,686.67014921875,104.90862581445313,686.41694921875Q104.87103911445313,686.16374921875,104.84593111445312,685.90904921875Q104.82082311445312,685.65434921875,104.80825401445313,685.39864921875Q104.79568481445312,685.14304921875,104.79568481445312,684.88704921875Q104.79568481445312,684.63114921875,104.80825401445313,684.37545921875Q104.82082311445312,684.11980921875,104.84593111445312,683.86507921875Q104.87103911445313,683.61035921875,104.90862581445313,683.35716921875Q104.94621181445312,683.10397921875,104.99618581445313,682.85293921875Q105.04616081445313,682.60189921875,105.10840181445313,682.35360921875Q105.17064381445313,682.10531921875,105.24500281445313,681.86037921875Q105.31936181445313,681.61543921875,105.40565981445313,681.37444921875Q105.49195681445312,681.13344921875,105.58998481445313,680.89696921875Q105.68801281445313,680.66049921875,105.79753481445313,680.42910921875Q105.90705481445312,680.19772921875,106.02781481445312,679.9719992187499Q106.14856481445312,679.74625921875,106.28025481445313,679.52671921875Q106.41194481445312,679.30716921875,106.55426481445312,679.09434921875Q106.69657481445313,678.88152921875,106.84917481445312,678.67593921875Q107.00176481445313,678.47034921875,107.16427481445312,678.27248921875Q107.32677481445313,678.07462921875,107.49880481445312,677.88497921875Q107.67082481445313,677.69532921875,107.85196481445313,677.51433921875Q108.03309481445312,677.33334921875,108.22289481445313,677.16144921875Q108.41269481445312,676.98955921875,108.61071481445313,676.82717921875Q108.80872481445313,676.66479921875,109.01447481445312,676.51232921875Q109.22022481445313,676.35985921875,109.43321481445312,676.21764921875Q109.64620481445313,676.07544921875,109.86591481445312,675.94385921875Q110.08563481445313,675.81226921875,110.31154481445313,675.69160921875Q110.53745481445313,675.57094921875,110.76902481445313,675.46151921875Q111.00058481445312,675.35207921875,111.23724481445312,675.25412821875Q111.47390481445312,675.15617721875,111.71509481445312,675.06994721875Q111.95628481445313,674.98371721875,112.20141481445313,674.90941621875Q112.44653481445313,674.83511521875,112.69502481445312,674.77292221875Q112.94350481445312,674.71072921875,113.19474481445313,674.66079421875Q113.44598481445313,674.61085821875,113.69936481445312,674.57330121875Q113.95275481445313,674.53574461875,114.20768481445313,674.51065621875Q114.46260481445313,674.48556781875,114.71845481445312,674.47300851875Q114.97428481445313,674.46044921875,115.23048481445312,674.46044921875Q115.48658481445312,674.46044921875,115.74248481445312,674.47300851875Q115.99828481445313,674.48556781875,116.25328481445312,674.51065621875Q116.50818481445313,674.53574461875,116.76158481445313,674.57330121875Q117.01498481445313,674.61085821875,117.26618481445313,674.66079421875Q117.51738481445312,674.71072921875,117.76588481445313,674.77292221875Q118.01438481445312,674.83511521875,118.25948481445313,674.90941621875Q118.50468481445313,674.98371721875,118.74588481445312,675.06994721875Q118.98698481445312,675.15617721875,119.22368481445312,675.25412821875Q119.46038481445312,675.35207921875,119.69188481445312,675.46151921875Q119.92348481445313,675.57094921875,120.14938481445313,675.69160921875Q120.37528481445312,675.81226921875,120.59498481445313,675.94385921875Q120.81468481445313,676.07544921875,121.02768481445312,676.21764921875Q121.24068481445312,676.35985921875,121.44648481445313,676.51232921875Q121.65218481445312,676.66479921875,121.85018481445313,676.82717921875Q122.04828481445313,676.98955921875,122.23808481445312,677.16144921875Q122.42788481445312,677.33334921875,122.60898481445312,677.51433921875Q122.79008481445312,677.69532921875,122.96208481445312,677.88497921875Q123.13418481445312,678.07462921875,123.29668481445313,678.27248921875Q123.45918481445312,678.47034921875,123.61178481445313,678.67593921875Q123.76438481445312,678.88152921875,123.90668481445313,679.09434921875Q124.04898481445312,679.30716921875,124.18068481445313,679.52671921875Q124.31238481445313,679.74625921875,124.43308481445312,679.9719992187499Q124.55388481445313,680.19772921875,124.66338481445312,680.42910921875Q124.77288481445312,680.66049921875,124.87098481445312,680.89696921875Q124.96898481445312,681.13344921875,125.05528481445313,681.37444921875Q125.14158481445313,681.61543921875,125.21588481445312,681.86037921875Q125.29028481445312,682.10531921875,125.35248481445312,682.35360921875Q125.41478481445313,682.60189921875,125.46478481445313,682.85293921875Q125.51468481445312,683.10397921875,125.55228481445312,683.35716921875Q125.58988481445313,683.61035921875,125.61498481445312,683.86507921875Q125.64008481445313,684.11980921875,125.65268481445312,684.37545921875Q125.66528481445312,684.63114921875,125.66528481445312,684.88704921875Z" fill="#CFDAE6" fill-opacity="1"/></g><g style="mix-blend-mode:passthrough"><path d="M196.53251944580077,624.3594947835084L141.62428644580078,640.9644577835084L141.12086634580078,639.2998577835083L196.02911944580077,622.6948207835082L196.53251944580077,624.3594947835084ZM197.15081944580078,623.5271577835083Q197.15081944580078,623.6128452835082,197.13411944580076,623.6968867835083Q197.11741944580078,623.7809277835083,197.0846194458008,623.8600927835083Q197.0518194458008,623.9392567835083,197.00421944580077,624.0105037835083Q196.95661944580078,624.0817507835083,196.8960194458008,624.1423407835083Q196.83541944580077,624.2029307835084,196.7642194458008,624.2505357835083Q196.69291944580078,624.2981417835083,196.61381944580077,624.3309327835083Q196.5346194458008,624.3637237835082,196.45061944580078,624.3804407835083Q196.36651944580078,624.3971577835083,196.28081944580077,624.3971577835083Q196.1951194458008,624.3971577835083,196.1111194458008,624.3804407835083Q196.0271194458008,624.3637237835082,195.94791944580078,624.3309327835083Q195.86871944580076,624.2981417835083,195.7975194458008,624.2505357835083Q195.72621944580078,624.2029307835084,195.6656194458008,624.1423407835083Q195.60511944580077,624.0817507835083,195.55741944580078,624.0105037835083Q195.5098194458008,623.9392567835083,195.47711944580078,623.8600927835083Q195.44431944580077,623.7809277835083,195.42751944580078,623.6968867835083Q195.41081944580077,623.6128452835082,195.41081944580077,623.5271577835083Q195.41081944580077,623.4414702835084,195.42751944580078,623.3574287835083Q195.44431944580077,623.2733877835083,195.47711944580078,623.1942227835083Q195.5098194458008,623.1150587835083,195.55751944580078,623.0438117835083Q195.60511944580077,622.9725647835083,195.6656194458008,622.9119747835083Q195.72621944580078,622.8513847835083,195.7975194458008,622.8037797835083Q195.86871944580076,622.7561737835083,195.94791944580078,622.7233827835083Q196.0271194458008,622.6905917835084,196.1111194458008,622.6738747835083Q196.1951194458008,622.6571577835083,196.28081944580077,622.6571577835083Q196.36651944580078,622.6571577835083,196.45061944580078,622.6738747835083Q196.5346194458008,622.6905917835084,196.61381944580077,622.7233827835083Q196.69291944580078,622.7561737835083,196.7642194458008,622.8037797835083Q196.83541944580077,622.8513847835083,196.8960194458008,622.9119747835083Q196.95661944580078,622.9725647835083,197.00421944580077,623.0438117835083Q197.0518194458008,623.1150587835083,197.0846194458008,623.1942227835083Q197.11741944580078,623.2733877835083,197.13411944580076,623.3574287835083Q197.15081944580078,623.4414702835084,197.15081944580078,623.5271577835083ZM142.24257944580077,640.1321577835083Q142.24257944580077,640.2178577835083,142.22585944580078,640.3018577835084Q142.2091394458008,640.3859577835083,142.17634944580078,640.4650577835083Q142.14355944580078,640.5442577835083,142.09595544580077,640.6154577835083Q142.0483494458008,640.6867577835083,141.98775944580078,640.7473577835083Q141.92716944580079,640.8079577835083,141.8559224458008,640.8555577835083Q141.7846754458008,640.9031577835083,141.7055114458008,640.9359577835083Q141.62634644580078,640.9687577835083,141.5423054458008,640.9854577835083Q141.45826444580078,641.0021577835083,141.37257644580077,641.0021577835083Q141.28688944580077,641.0021577835083,141.20284744580078,640.9854577835083Q141.11880684580078,640.9687577835083,141.03964194580078,640.9359577835083Q140.9604774458008,640.9031577835083,140.8892304458008,640.8555577835083Q140.8179834458008,640.8079577835083,140.75739344580077,640.7473577835083Q140.69680344580078,640.6867577835083,140.64919844580078,640.6154577835083Q140.60159244580078,640.5442577835083,140.56880144580077,640.4650577835083Q140.53601044580077,640.3859577835083,140.51929344580077,640.3018577835084Q140.50257644580077,640.2178577835083,140.50257644580077,640.1321577835083Q140.50257644580077,640.0464577835083,140.51929344580077,639.9624577835083Q140.53601044580077,639.8783577835082,140.56880144580077,639.7992577835083Q140.60159244580078,639.7200577835083,140.64919844580078,639.6488577835083Q140.69680344580078,639.5775577835083,140.75739344580077,639.5169577835082Q140.8179834458008,639.4563577835083,140.8892304458008,639.4087577835083Q140.9604774458008,639.3611577835082,141.03964194580078,639.3283577835083Q141.11880684580078,639.2955577835083,141.20284744580078,639.2788577835083Q141.28688944580077,639.2621577835083,141.37257644580077,639.2621577835083Q141.45826444580078,639.2621577835083,141.5423054458008,639.2788577835083Q141.62634644580078,639.2955577835083,141.7055114458008,639.3283577835083Q141.7846754458008,639.3611577835082,141.8559224458008,639.4087577835083Q141.92716944580079,639.4563577835083,141.98775944580078,639.5169577835082Q142.0483494458008,639.5775577835083,142.09595544580077,639.6488577835083Q142.14355944580078,639.7200577835083,142.17634944580078,639.7992577835083Q142.2091394458008,639.8783577835082,142.22585944580078,639.9624577835083Q142.24257944580077,640.0464577835083,142.24257944580077,640.1321577835083Z" fill="#CFDAE6" fill-opacity="1"/></g><g style="opacity:0.699999988079071;mix-blend-mode:passthrough"><path d="M84.921996602417,621.1937793862305L85.610621602417,621.4325033862305Q85.64331660241699,621.4438373862305,85.673172602417,621.4613323862304Q85.70303060241699,621.4788273862305,85.72890060241699,621.5018113862304Q85.754770602417,621.5247943862305,85.77565060241699,621.5523833862304Q85.796540602417,621.5799713862305,85.81165060241699,621.6111043862305Q85.826750602417,621.6422383862305,85.835490602417,621.6757203862305Q85.84423060241699,621.7092023862305,85.846270602417,621.7437453862304Q85.84831060241699,621.7782893862304,85.84357060241699,621.8125673862305Q85.83883060241699,621.8468453862305,85.82750060241699,621.8795403862305Q85.81617060241699,621.9122353862305,85.79867060241699,621.9420913862305Q85.781180602417,621.9719463862305,85.75819060241699,621.9978153862305Q85.735210602417,622.0236843862305,85.707620602417,622.0445723862305Q85.68003260241699,622.0654603862305,85.64889960241699,622.0805643862304Q85.617765602417,622.0956693862305,85.58428460241699,622.1044093862305Q85.550802602417,622.1131493862305,85.516258602417,622.1151893862304Q85.48171460241699,622.1172303862305,85.44743660241699,622.1124923862304Q85.413158602417,622.1077543862305,85.380463602417,622.0964193862304L84.69183840241699,621.8576953862305L84.921996602417,621.1937793862305ZM87.676500602417,622.1486753862305L89.053750602417,622.6261183862305Q89.08644060241699,622.6374583862305,89.116300602417,622.6549483862304Q89.146150602417,622.6724483862305,89.17202060241699,622.6954283862304Q89.19789060241699,622.7184183862305,89.218780602417,622.7459983862304Q89.239670602417,622.7735883862305,89.254770602417,622.8047283862305Q89.26988060241699,622.8358583862305,89.27862060241699,622.8693383862304Q89.287360602417,622.9028183862305,89.28940060241699,622.9373683862304Q89.291440602417,622.9719083862304,89.286700602417,623.0061883862305Q89.28196060241699,623.0404683862305,89.27063060241699,623.0731583862305Q89.259290602417,623.1058583862305,89.24180060241699,623.1357083862305Q89.22430060241699,623.1655683862305,89.20132060241698,623.1914383862305Q89.178340602417,623.2173083862305,89.15075060241699,623.2381883862305Q89.12316060241699,623.2590783862305,89.092030602417,623.2741883862304Q89.06089060241699,623.2892883862305,89.02741060241699,623.2980283862305Q88.993930602417,623.3067683862305,88.95938060241699,623.3088083862305Q88.92484060241699,623.3108483862304,88.890560602417,623.3061083862304Q88.85629060241699,623.3013783862305,88.823590602417,623.2900383862304L87.446340602417,622.8125883862305Q87.41364060241699,622.8012583862304,87.383790602417,622.7837583862305Q87.353930602417,622.7662683862304,87.328060602417,622.7432883862305Q87.302190602417,622.7202983862305,87.281310602417,622.6927083862305Q87.26042060241699,622.6651283862304,87.245320602417,622.6339883862305Q87.23021060241699,622.6028583862304,87.22147060241699,622.5693783862305Q87.212730602417,622.5358883862305,87.21069060241699,622.5013483862305Q87.208650602417,622.4668083862305,87.213390602417,622.4325283862305Q87.21813060241699,622.3982483862304,87.22946060241699,622.3655583862304Q87.240790602417,622.3328583862304,87.25829060241699,622.3030083862304Q87.27578060241699,622.2731483862304,87.298770602417,622.2472793862305Q87.321750602417,622.2214103862304,87.34934060241699,622.2005223862304Q87.37693060241699,622.1796343862304,87.408060602417,622.1645303862305Q87.43920060241699,622.1494263862305,87.47268060241699,622.1406853862304Q87.506160602417,622.1319453862304,87.54070060241699,622.1299053862305Q87.57525060241699,622.1278653862305,87.60952060241699,622.1326033862305Q87.64380060241699,622.1373413862304,87.676500602417,622.1486753862305ZM91.11962060241699,623.3422983862305L92.496880602417,623.8197383862305Q92.529570602417,623.8310783862305,92.559430602417,623.8485683862305Q92.58928060241699,623.8660683862305,92.61515060241699,623.8890483862305Q92.64102060241699,623.9120383862305,92.661910602417,623.9396183862304Q92.68279060241699,623.9672083862305,92.697900602417,623.9983483862304Q92.713000602417,624.0294783862305,92.72174060241699,624.0629583862304Q92.73048060241699,624.0964383862305,92.732520602417,624.1309883862305Q92.73456060241699,624.1655283862304,92.729830602417,624.1998083862304Q92.725090602417,624.2340883862305,92.713750602417,624.2667783862305Q92.70242060241699,624.2994783862305,92.684920602417,624.3293283862305Q92.667430602417,624.3591883862305,92.644450602417,624.3850583862304Q92.62146060241699,624.4109283862305,92.59387060241698,624.4318083862305Q92.566290602417,624.4526983862305,92.53515060241699,624.4678083862304Q92.50402060241699,624.4829083862305,92.47054060241699,624.4916483862305Q92.43705060241699,624.5003883862305,92.402510602417,624.5024283862305Q92.36797060241699,624.5044683862304,92.333690602417,624.4997283862305Q92.299410602417,624.4949983862305,92.266720602417,624.4836583862304L90.88947060241699,624.0062083862305Q90.85677060241699,623.9948783862304,90.82692060241699,623.9773783862305Q90.79706060241699,623.9598883862304,90.771190602417,623.9369083862305Q90.745320602417,623.9139183862304,90.72444060241699,623.8863283862305Q90.703550602417,623.8587383862305,90.68844060241699,623.8276083862305Q90.673340602417,623.7964783862304,90.664600602417,623.7629983862305Q90.655860602417,623.7295083862305,90.653820602417,623.6949683862305Q90.65178060241699,623.6604283862305,90.65651060241699,623.6261483862305Q90.661250602417,623.5918683862304,90.67259060241699,623.5591783862304Q90.68392060241699,623.5264783862305,90.70142060241699,623.4966183862305Q90.718910602417,623.4667683862305,90.74189060241699,623.4408983862305Q90.764880602417,623.4150283862305,90.792470602417,623.3941383862305Q90.82006060241699,623.3732583862304,90.85119060241699,623.3581483862305Q90.882320602417,623.3430483862305,90.915800602417,623.3343083862304Q90.949290602417,623.3255683862304,90.98383060241699,623.3235283862305Q91.018370602417,623.3214883862305,91.05265060241699,623.3262183862305Q91.086930602417,623.3309583862305,91.11962060241699,623.3422983862305ZM94.562750602417,624.5359183862305L95.93997060241699,625.0133583862305Q95.972670602417,625.0246983862305,96.002570602417,625.0421883862305Q96.03237060241699,625.0596883862305,96.058270602417,625.0826683862305Q96.08417060241699,625.1056483862304,96.10507060241699,625.1332383862305Q96.125870602417,625.1608283862305,96.14107060241699,625.1919683862304Q96.15617060241699,625.2230983862305,96.164870602417,625.2565783862304Q96.17357060241699,625.2900583862305,96.175670602417,625.3246083862305Q96.177670602417,625.3591483862305,96.172970602417,625.3934283862304Q96.16817060241699,625.4277083862305,96.15687060241699,625.4603983862305Q96.145570602417,625.4930983862305,96.128070602417,625.5229483862305Q96.110570602417,625.5528083862305,96.08757060241699,625.5786783862304Q96.06457060241699,625.6045483862305,96.036970602417,625.6254283862305Q96.009370602417,625.6463183862305,95.978270602417,625.6614283862305Q95.94717060241699,625.6765283862304,95.913670602417,625.6852683862305Q95.880170602417,625.6940083862305,95.84567060241699,625.6960483862305Q95.81107060241699,625.6980883862304,95.77677060241699,625.6933483862305Q95.74257060241699,625.6886183862305,95.709870602417,625.6772783862305L94.33259060241699,625.1998283862305Q94.299900602417,625.1884983862304,94.270040602417,625.1709983862305Q94.24019060241699,625.1535083862304,94.21432060241699,625.1305283862305Q94.18845060241699,625.1075383862304,94.167560602417,625.0799483862305Q94.14667060241699,625.0523583862305,94.13157060241699,625.0212283862305Q94.11646060241699,624.9900983862304,94.10772060241699,624.9566183862305Q94.09898060241699,624.9231283862305,94.09694060241699,624.8885883862305Q94.094900602417,624.8540483862305,94.099640602417,624.8197683862305Q94.104380602417,624.7854883862304,94.115710602417,624.7527983862304Q94.12705060241699,624.7200983862305,94.144540602417,624.6902383862305Q94.162040602417,624.6603883862305,94.185020602417,624.6345183862305Q94.20800060241699,624.6086483862305,94.23559060241699,624.5877583862305Q94.263180602417,624.5668783862304,94.294310602417,624.5517683862305Q94.32545060241699,624.5366683862304,94.35893060241699,624.5279283862304Q94.39241060241699,624.5191883862304,94.426960602417,624.5171483862305Q94.46150060241699,624.5151083862305,94.495780602417,624.5198383862305Q94.530060602417,624.5245783862305,94.562750602417,624.5359183862305ZM98.00587060241699,625.7295383862305L99.383170602417,626.2069783862305Q99.41587060241699,626.2183183862305,99.445670602417,626.2358083862305Q99.475570602417,626.2533083862305,99.501370602417,626.2762883862305Q99.52727060241699,626.2992683862304,99.54817060241699,626.3268583862305Q99.56907060241699,626.3544483862305,99.58417060241699,626.3855883862304Q99.599270602417,626.4167183862305,99.607970602417,626.4501983862305Q99.61677060241699,626.4836783862305,99.61877060241699,626.5182283862305Q99.620770602417,626.5527683862305,99.616070602417,626.5870483862304Q99.611370602417,626.6213283862305,99.59997060241699,626.6540183862305Q99.588670602417,626.6867183862305,99.571170602417,626.7165683862305Q99.55367060241699,626.7464283862305,99.53067060241699,626.7722983862304Q99.507670602417,626.7981683862305,99.48017060241699,626.8190483862305Q99.452570602417,626.8399383862304,99.421370602417,626.8550483862305Q99.39027060241699,626.8701483862304,99.35677060241699,626.8788883862304Q99.323270602417,626.8876283862305,99.28877060241699,626.8896683862305Q99.25417060241699,626.8917083862304,99.21997060241699,626.8869683862305Q99.18567060241699,626.8822283862305,99.15297060241699,626.8708983862305L97.775670602417,626.3934483862305Q97.74307060241699,626.3821183862304,97.713170602417,626.3646183862305Q97.683270602417,626.3471283862305,97.65747060241699,626.3241383862305Q97.63157060241699,626.3011583862304,97.61067060241699,626.2735683862305Q97.58977060241699,626.2459783862305,97.57467060241699,626.2148483862304Q97.559570602417,626.1837183862305,97.55087060241699,626.1502283862304Q97.542070602417,626.1167483862305,97.54007060241699,626.0822083862305Q97.538070602417,626.0476683862305,97.542770602417,626.0133883862304Q97.547470602417,625.9791083862305,97.55887060241699,625.9464183862304Q97.570170602417,625.9137183862305,97.58767060241699,625.8838583862305Q97.60517060241699,625.8540083862305,97.62817060241699,625.8281383862304Q97.651170602417,625.8022683862305,97.67867060241699,625.7813783862305Q97.70627060241699,625.7604983862304,97.73747060241699,625.7453883862305Q97.76857060241699,625.7302883862304,97.80207060241699,625.7215483862304Q97.835570602417,625.7128083862304,97.87007060241699,625.7107683862305Q97.90467060241699,625.7087283862305,97.938870602417,625.7134583862305Q97.97317060241699,625.7181983862305,98.00587060241699,625.7295383862305ZM101.44897060241699,626.9231583862305L102.826270602417,627.4005983862305Q102.85897060241699,627.4119383862304,102.888770602417,627.4294283862305Q102.918670602417,627.4469283862305,102.94457060241699,627.4699083862305Q102.97037060241699,627.4928883862304,102.99127060241699,627.5204783862305Q103.012170602417,627.5480683862305,103.02727060241699,627.5791983862305Q103.042370602417,627.6103383862305,103.05117060241699,627.6438183862305Q103.05987060241699,627.6772983862305,103.06187060241699,627.7118483862305Q103.06397060241699,627.7463883862305,103.059170602417,627.7806683862304Q103.05447060241698,627.8149483862305,103.04317060241699,627.8476383862304Q103.031770602417,627.8803383862305,103.01427060241699,627.9101883862305Q102.99677060241699,627.9400483862305,102.973870602417,627.9659183862304Q102.95087060241698,627.9917783862305,102.92327060241699,628.0126683862304Q102.895670602417,628.0335583862304,102.86457060241699,628.0486683862305Q102.83337060241699,628.0637683862304,102.79987060241699,628.0725083862304Q102.76647060241699,628.0812483862304,102.73187060241699,628.0832883862305Q102.697370602417,628.0853283862305,102.663070602417,628.0805883862305Q102.62877060241699,628.0758483862305,102.596070602417,628.0645183862305L101.21887060241698,627.5870683862305Q101.186170602417,627.5757383862305,101.156270602417,627.5582383862304Q101.12647060241699,627.5407483862305,101.100570602417,627.5177583862305Q101.074670602417,627.4947783862305,101.05377060241699,627.4671883862304Q101.032970602417,627.4395983862305,101.01787060241699,627.4084683862304Q101.002670602417,627.3773383862305,100.993970602417,627.3438583862305Q100.98527060241699,627.3103683862305,100.98317060241699,627.2758283862305Q100.981170602417,627.2412883862305,100.985870602417,627.2070083862304Q100.990670602417,627.1727283862305,101.00197060241699,627.1400383862305Q101.013270602417,627.1073383862305,101.030770602417,627.0774783862305Q101.04827060241699,627.0476283862305,101.07127060241699,627.0217583862304Q101.094270602417,626.9958883862305,101.12187060241699,626.9749983862305Q101.149470602417,626.9541183862304,101.18057060241699,626.9390083862305Q101.21167060241699,626.9239083862304,101.24517060241699,626.9151683862304Q101.278670602417,626.9064283862305,101.31317060241699,626.9043883862305Q101.347770602417,626.9023483862304,101.38207060241699,626.9070783862305Q101.416270602417,626.9118183862305,101.44897060241699,626.9231583862305ZM104.892170602417,628.1167783862305L106.26937060241698,628.5942183862305Q106.30207060241699,628.6055583862304,106.33197060241699,628.6230483862305Q106.361770602417,628.6405483862304,106.38767060241699,628.6635283862305Q106.413570602417,628.6865083862305,106.43437060241699,628.7140983862305Q106.45527060241699,628.7416883862305,106.47037060241699,628.7728283862305Q106.485470602417,628.8039583862304,106.49427060241699,628.8374383862305Q106.502970602417,628.8709183862304,106.50507060241699,628.9054683862305Q106.50707060241699,628.9400083862305,106.50237060241699,628.9742883862305Q106.497570602417,629.0085683862304,106.486270602417,629.0412583862304Q106.47497060241699,629.0739583862305,106.45747060241699,629.1038083862304Q106.43997060241699,629.1336683862305,106.416970602417,629.1595383862305Q106.393970602417,629.1853983862304,106.36637060241699,629.2062883862304Q106.33877060241699,629.2271783862304,106.30767060241699,629.2422883862305Q106.276570602417,629.2573883862304,106.24307060241699,629.2661283862304Q106.20957060241699,629.2748683862304,106.17497060241699,629.2769083862305Q106.140470602417,629.2789483862305,106.106170602417,629.2742083862305Q106.071870602417,629.2694683862304,106.03927060241699,629.2581383862305L104.661970602417,628.7806883862305Q104.629270602417,628.7693583862305,104.599470602417,628.7518583862304Q104.56957060241699,628.7343683862305,104.543670602417,628.7113783862304Q104.51787060241699,628.6883983862305,104.496970602417,628.6608083862304Q104.476070602417,628.6332183862305,104.46097060241699,628.6020883862304Q104.44587060241699,628.5709583862305,104.437070602417,628.5374683862304Q104.42837060241699,628.5039883862305,104.426370602417,628.4694483862305Q104.424270602417,628.4348983862304,104.428970602417,628.4006283862304Q104.43377060241698,628.3663483862305,104.44507060241699,628.3336483862305Q104.456470602417,628.3009583862305,104.47397060241698,628.2710983862305Q104.49137060241699,628.2412483862305,104.51437060241699,628.2153783862304Q104.53737060241698,628.1895083862305,104.56497060241699,628.1686183862305Q104.592570602417,628.1477283862305,104.623670602417,628.1326283862305Q104.65487060241699,628.1175283862304,104.68827060241699,628.1087783862305Q104.721770602417,628.1000383862305,104.756370602417,628.0979983862304Q104.79087060241699,628.0959583862304,104.82517060241699,628.1006983862304Q104.85947060241699,628.1054383862305,104.892170602417,628.1167783862305ZM108.33527060241698,629.3103983862304L109.712470602417,629.7878383862304Q109.74517060241699,629.7991783862304,109.77507060241699,629.8166683862305Q109.804870602417,629.8341683862304,109.83077060241699,629.8571483862305Q109.856670602417,629.8801283862305,109.877570602417,629.9077183862305Q109.89847060241699,629.9353083862304,109.913570602417,629.9664483862305Q109.92867060241699,629.9975783862304,109.93737060241699,630.0310583862305Q109.946070602417,630.0645383862304,109.948170602417,630.0990883862305Q109.95017060241699,630.1336283862305,109.94547060241699,630.1679083862305Q109.94077060241699,630.2021883862304,109.929370602417,630.2348783862304Q109.91807060241699,630.2675783862305,109.90057060241699,630.2974283862304Q109.88307060241699,630.3272883862305,109.860070602417,630.3531483862305Q109.83707060241699,630.3790183862304,109.809470602417,630.3999083862304Q109.78187060241699,630.4207983862304,109.75077060241699,630.4358983862305Q109.719670602417,630.4510083862305,109.686170602417,630.4597483862304Q109.65267060241699,630.4684883862304,109.618170602417,630.4705283862305Q109.58357060241698,630.4725683862305,109.54937060241699,630.4678283862305Q109.51507060241698,630.4630883862304,109.48237060241699,630.4517583862305L108.10507060241699,629.9743083862305Q108.072370602417,629.9629783862305,108.04257060241699,629.9454783862304Q108.01267060241699,629.9279883862305,107.986770602417,629.9049983862304Q107.96097060241699,629.8820183862305,107.940070602417,629.8544283862304Q107.919170602417,629.8268383862305,107.904070602417,629.7957083862304Q107.88897060241699,629.7645783862305,107.880270602417,629.7310883862305Q107.87147060241699,629.6976083862305,107.869470602417,629.6630683862305Q107.867370602417,629.6285283862304,107.87217060241699,629.5942483862304Q107.876870602417,629.5599683862305,107.88817060241699,629.5272683862305Q107.89957060241699,629.4945783862305,107.917070602417,629.4647183862305Q107.934570602417,629.4348683862305,107.957570602417,629.4089983862305Q107.980470602417,629.3831283862305,108.00807060241699,629.3622383862305Q108.03567060241699,629.3413483862305,108.066770602417,629.3262483862304Q108.09797060241699,629.3111383862305,108.131470602417,629.3023983862305Q108.164870602417,629.2936583862305,108.199470602417,629.2916183862304Q108.23397060241699,629.2895783862305,108.26827060241699,629.2943183862304Q108.30257060241699,629.2990583862305,108.33527060241698,629.3103983862304ZM111.778370602417,630.5040183862304L113.15567060241699,630.9814583862304Q113.188370602417,630.9927983862304,113.21817060241699,631.0102883862305Q113.24807060241699,631.0277883862304,113.27387060241699,631.0507683862305Q113.299770602417,631.0737483862305,113.320670602417,631.1013383862305Q113.341570602417,631.1289283862304,113.356670602417,631.1600583862305Q113.37177060241699,631.1911983862304,113.38047060241699,631.2246783862305Q113.38927060241699,631.2581583862304,113.391270602417,631.2927083862305Q113.393370602417,631.3272583862305,113.38857060241699,631.3615583862305Q113.38387060241699,631.3957583862305,113.372470602417,631.4284583862304Q113.36117060241699,631.4611583862305,113.34367060241699,631.4910583862305Q113.326170602417,631.5208583862304,113.303170602417,631.5467583862305Q113.28027060241699,631.5726583862305,113.252670602417,631.5935583862305Q113.22507060241699,631.6144583862305,113.193870602417,631.6295583862304Q113.162770602417,631.6446583862305,113.129270602417,631.6533583862305Q113.09577060241699,631.6620583862305,113.061270602417,631.6641583862305Q113.02677060241699,631.6661583862304,112.992470602417,631.6614583862305Q112.958170602417,631.6567583862304,112.925470602417,631.6453583862304L111.54827060241699,631.1679283862304Q111.515570602417,631.1565883862305,111.48567060241699,631.1390983862304Q111.45577060241699,631.1215983862305,111.429970602417,631.0986183862304Q111.404070602417,631.0756383862305,111.383170602417,631.0480483862304Q111.362270602417,631.0204583862304,111.347170602417,630.9893283862305Q111.33207060241699,630.9581983862305,111.32337060241699,630.9247083862305Q111.31457060241699,630.8912283862305,111.312570602417,630.8566883862304Q111.31057060241699,630.8221383862304,111.31527060241699,630.7878683862305Q111.31997060241699,630.7535883862305,111.331370602417,630.7208883862305Q111.34267060241699,630.6881983862305,111.36017060241699,630.6583383862305Q111.377670602417,630.6284883862305,111.400670602417,630.6026183862305Q111.42367060241699,630.5767483862305,111.451270602417,630.5558583862305Q111.478770602417,630.5349683862305,111.50997060241698,630.5198683862304Q111.541070602417,630.5047683862305,111.574570602417,630.4960283862305Q111.60807060241699,630.4872883862305,111.642570602417,630.4852483862305Q111.677170602417,630.4832083862304,111.71137060241699,630.4879383862304Q111.745670602417,630.4926783862305,111.778370602417,630.5040183862304ZM115.22147060241699,631.6976583862305L116.59877060241699,632.1750583862305Q116.631470602417,632.1864583862305,116.66127060241699,632.2039583862305Q116.69117060241699,632.2213583862305,116.71707060241698,632.2443583862305Q116.74287060241699,632.2673583862305,116.763770602417,632.2949583862305Q116.784670602417,632.3225583862304,116.799770602417,632.3536583862304Q116.81487060241699,632.3848583862305,116.823670602417,632.4182583862305Q116.832370602417,632.4517583862305,116.83437060241698,632.4863583862304Q116.836470602417,632.5208583862304,116.83167060241699,632.5551583862305Q116.82697060241699,632.5894583862305,116.81567060241699,632.6221583862305Q116.80427060241699,632.6548583862304,116.786770602417,632.6846583862305Q116.769270602417,632.7145583862305,116.74637060241699,632.7403583862305Q116.72337060241699,632.7662583862304,116.69577060241699,632.7871583862304Q116.66817060241699,632.8080583862304,116.637070602417,632.8231583862305Q116.60587060241699,632.8382583862305,116.57247060241698,632.8469583862304Q116.538970602417,632.8557583862305,116.504370602417,632.8577583862304Q116.46987060241699,632.8597583862305,116.43557060241699,632.8550583862304Q116.40127060241699,632.8503583862305,116.368570602417,632.8389583862305L114.99137060241699,632.3615583862305Q114.95867060241699,632.3502583862305,114.92877060241699,632.3327583862305Q114.898970602417,632.3152583862304,114.87307060241699,632.2922583862305Q114.847170602417,632.2692583862305,114.826370602417,632.2416583862305Q114.80547060241699,632.2140583862305,114.790370602417,632.1829583862304Q114.775270602417,632.1518583862305,114.76647060241699,632.1183583862305Q114.757770602417,632.0848583862305,114.75567060241698,632.0502583862304Q114.75367060241699,632.0157583862305,114.75837060241699,631.9814583862304Q114.76317060241699,631.9471583862305,114.774470602417,631.9145583862305Q114.78577060241699,631.8818583862304,114.80327060241699,631.8519583862304Q114.82077060241699,631.8220583862304,114.843770602417,631.7962583862304Q114.86677060241699,631.7703583862304,114.89437060241698,631.7494583862305Q114.92197060241699,631.7285583862305,114.953070602417,631.7134583862305Q114.984170602417,631.6983583862304,115.01767060241698,631.6896583862305Q115.05117060241699,631.6808583862305,115.085670602417,631.6788583862304Q115.120270602417,631.6768583862305,115.154570602417,631.6815583862304Q115.188770602417,631.6862583862305,115.22147060241699,631.6976583862305ZM118.66467060241699,632.8912583862304L119.35327060241698,633.1299583862304Q119.35327060241698,633.1299583862304,119.34447060241699,633.1552583862305Q119.335770602417,633.1805583862305,119.319570602417,633.2271583862305Q119.30337060241699,633.2738583862305,119.28227060241699,633.3348583862305Q119.26107060241699,633.3958583862304,119.238170602417,633.4619583862304Q119.215270602417,633.5279583862305,119.19417060241699,633.5889583862305Q119.172970602417,633.6499583862304,119.156770602417,633.6966583862305Q119.14067060241699,633.7433583862305,119.131870602417,633.7686583862304Q119.12307060241699,633.7938583862305,119.12307060241699,633.7938583862305L118.434470602417,633.5551583862305Q118.401770602417,633.5438583862305,118.371970602417,633.5263583862304Q118.34207060241698,633.5088583862305,118.31617060241699,633.4858583862305Q118.290370602417,633.4628583862304,118.26947060241699,633.4352583862304Q118.24857060241699,633.4076583862304,118.23347060241699,633.3765583862305Q118.218370602417,633.3454583862305,118.20957060241699,633.3119583862305Q118.20087060241698,633.2784583862305,118.198870602417,633.2439583862305Q118.19677060241699,633.2093583862305,118.201570602417,633.1750583862305Q118.20627060241699,633.1408583862304,118.217570602417,633.1081583862305Q118.228970602417,633.0754583862305,118.24647060241699,633.0455583862305Q118.26397060241699,633.0157583862305,118.286870602417,632.9898583862305Q118.30987060241699,632.9639583862305,118.337470602417,632.9430583862305Q118.36507060241699,632.9222583862305,118.39617060241699,632.9070583862305Q118.427370602417,632.8919583862305,118.460770602417,632.8832583862305Q118.49427060241699,632.8745583862304,118.52887060241699,632.8724583862305Q118.563370602417,632.8704583862304,118.597670602417,632.8751583862305Q118.631970602417,632.8799583862304,118.66467060241699,632.8912583862304ZM85.156917602417,621.5257373862305Q85.156917602417,621.5602093862304,85.150192602417,621.5940193862305Q85.14346760241699,621.6278293862305,85.13027560241699,621.6596763862304Q85.117083602417,621.6915243862304,85.09793160241699,621.7201873862305Q85.078780602417,621.7488493862305,85.054404602417,621.7732253862305Q85.03002960241699,621.7976003862304,85.001366602417,621.8167523862305Q84.972704602417,621.8359033862305,84.94085660241699,621.8490953862305Q84.90900860241699,621.8622873862305,84.875199602417,621.8690123862305Q84.841389602417,621.8757373862304,84.80691760241699,621.8757373862304Q84.77244550241699,621.8757373862304,84.73863590241699,621.8690123862305Q84.70482630241699,621.8622873862305,84.67297833241699,621.8490953862305Q84.64113040241699,621.8359033862305,84.61246800241699,621.8167523862305Q84.58380560241699,621.7976003862304,84.559430602417,621.7732253862305Q84.53505460241699,621.7488493862305,84.515903602417,621.7201873862305Q84.49675160241699,621.6915243862304,84.48355960241699,621.6596763862304Q84.47036760241699,621.6278293862305,84.463642602417,621.5940193862305Q84.456917602417,621.5602093862304,84.456917602417,621.5257373862305Q84.456917602417,621.4912653862305,84.463642602417,621.4574563862304Q84.47036760241699,621.4236463862304,84.48355960241699,621.3917984862304Q84.49675160241699,621.3599504862304,84.515903602417,621.3312880862304Q84.53505460241699,621.3026256862305,84.559430602417,621.2782502862304Q84.583805502417,621.2538748862305,84.61246800241699,621.2347232862305Q84.64113040241699,621.2155716862304,84.67297833241699,621.2023798862305Q84.70482630241699,621.1891883862305,84.73863590241699,621.1824623862304Q84.77244550241699,621.1757373862305,84.80691760241699,621.1757373862305Q84.841389602417,621.1757373862305,84.875199602417,621.1824623862304Q84.90900860241699,621.1891883862305,84.94085660241699,621.2023798862305Q84.972704602417,621.2155716862304,85.001366602417,621.2347232862305Q85.03002960241699,621.2538748862305,85.054404602417,621.2782502862304Q85.078780602417,621.3026256862305,85.09793160241699,621.3312880862304Q85.117083602417,621.3599504862304,85.13027560241699,621.3917984862304Q85.14346760241699,621.4236463862304,85.150192602417,621.4574563862304Q85.156917602417,621.4912653862305,85.156917602417,621.5257373862305ZM119.588170602417,633.4619583862304Q119.588170602417,633.4963583862304,119.581470602417,633.5302583862305Q119.57477060241699,633.5640583862305,119.56157060241699,633.5958583862305Q119.548370602417,633.6277583862304,119.529170602417,633.6563583862305Q119.51007060241699,633.6850583862305,119.485670602417,633.7094583862305Q119.46127060241699,633.7337583862304,119.43267060241699,633.7529583862305Q119.40397060241699,633.7720583862305,119.37217060241699,633.7852583862305Q119.340270602417,633.7984583862304,119.306470602417,633.8052583862304Q119.272670602417,633.8119583862305,119.238170602417,633.8119583862305Q119.20367060241699,633.8119583862305,119.16987060241699,633.8052583862304Q119.13607060241699,633.7984583862304,119.10427060241699,633.7852583862305Q119.072370602417,633.7720583862305,119.043770602417,633.7529583862305Q119.01507060241698,633.7337583862304,118.990670602417,633.7094583862305Q118.96627060241698,633.6850583862305,118.94717060241699,633.6563583862305Q118.92797060241699,633.6277583862304,118.91487060241698,633.5958583862305Q118.901670602417,633.5640583862305,118.894870602417,633.5302583862305Q118.88817060241699,633.4963583862304,118.88817060241699,633.4619583862304Q118.88817060241699,633.4274583862305,118.894870602417,633.3936583862304Q118.901670602417,633.3598583862305,118.91487060241698,633.3279583862304Q118.92797060241699,633.2961583862304,118.94717060241699,633.2674583862305Q118.96627060241698,633.2388583862305,118.990670602417,633.2144583862305Q119.01507060241698,633.1900583862305,119.043770602417,633.1709583862305Q119.072370602417,633.1517583862304,119.10427060241699,633.1385583862304Q119.13607060241699,633.1253583862305,119.16987060241699,633.1186583862304Q119.20367060241699,633.1119583862305,119.238170602417,633.1119583862305Q119.272670602417,633.1119583862305,119.306470602417,633.1186583862304Q119.340270602417,633.1253583862305,119.37217060241699,633.1385583862304Q119.40397060241699,633.1517583862304,119.43267060241699,633.1709583862305Q119.46127060241699,633.1900583862305,119.485670602417,633.2144583862305Q119.51007060241699,633.2388583862305,119.529170602417,633.2674583862305Q119.548370602417,633.2961583862304,119.56157060241699,633.3279583862304Q119.57477060241699,633.3598583862305,119.581470602417,633.3936583862304Q119.588170602417,633.4274583862305,119.588170602417,633.4619583862304Z" fill="#E0B4B7" fill-opacity="1"/></g><g style="mix-blend-mode:passthrough"><path d="M120.46135087890625,676.1137384094238L120.79891927890625,675.5170384094238Q120.81595737890625,675.4869384094238,120.83854397890624,675.4607384094238Q120.86113057890626,675.4345384094238,120.88839787890625,675.4131384094238Q120.91566487890626,675.3918384094238,120.94656487890624,675.3763384094239Q120.97746387890625,675.3607384094238,121.01080887890625,675.3514384094238Q121.04415387890624,675.3422384094238,121.07866287890624,675.3396384094239Q121.11317087890625,675.3371384094238,121.14751787890626,675.3413384094238Q121.18186387890626,675.3455384094239,121.21472787890625,675.3563384094239Q121.24759187890625,675.3672384094239,121.27770987890625,675.3842384094238Q121.30782887890625,675.4012384094239,121.33404487890625,675.4238384094239Q121.36026087890625,675.4464384094239,121.38156587890624,675.4737384094238Q121.40287187890625,675.5009384094238,121.41844887890625,675.5318384094238Q121.43402587890625,675.5627384094238,121.44327487890625,675.5961384094238Q121.45252487890625,675.6294384094239,121.45509087890625,675.6639384094238Q121.45765687890625,675.6984384094238,121.45344187890625,675.7328384094238Q121.44922687890625,675.7671384094239,121.43839187890624,675.8000384094238Q121.42755687890624,675.8329384094238,121.41051887890625,675.8630384094238L121.07295087890625,676.4597384094238L120.46135087890625,676.1137384094238ZM121.81162087890625,673.7268384094239L122.48676087890625,672.5334384094239Q122.50380087890625,672.5033384094238,122.52638087890625,672.4770384094238Q122.54897087890625,672.4508384094238,122.57624087890625,672.4295384094238Q122.60350087890625,672.4082384094238,122.63440087890625,672.3926384094239Q122.66530087890625,672.3771384094239,122.69865087890625,672.3678384094238Q122.73199087890625,672.3586384094239,122.76650087890626,672.3560384094238Q122.80101087890625,672.3534384094238,122.83536087890624,672.3576384094238Q122.86970087890624,672.3619384094238,122.90257087890625,672.3727384094238Q122.93543087890625,672.3835384094239,122.96555087890626,672.4006384094238Q122.99567087890625,672.4176384094238,123.02188087890625,672.4402384094238Q123.04810087890625,672.4628384094239,123.06941087890625,672.4900384094238Q123.09071087890625,672.5173384094238,123.10629087890625,672.5482384094238Q123.12187087890625,672.5791384094239,123.13111087890626,672.6125384094238Q123.14036087890625,672.6458384094238,123.14293087890626,672.6803384094238Q123.14550087890625,672.7148384094238,123.14128087890624,672.7492384094238Q123.13707087890624,672.7835384094238,123.12623087890626,672.8164384094239Q123.11540087890626,672.8492384094238,123.09836087890625,672.8794384094239L122.42322087890625,674.0728384094239Q122.40618087890626,674.1029384094238,122.38360087890625,674.1291384094238Q122.36101087890626,674.1554384094238,122.33374087890626,674.1767384094238Q122.30648087890626,674.1980384094238,122.27558087890625,674.2135384094238Q122.24468087890625,674.2291384094239,122.21133087890625,674.2384384094238Q122.17799087890624,674.2476384094239,122.14348087890625,674.2502384094238Q122.10897087890625,674.2528384094238,122.07462087890625,674.2485384094239Q122.04028087890624,674.2443384094238,122.00741087890626,674.2335384094238Q121.97455087890626,674.2227384094239,121.94443087890625,674.2056384094238Q121.91431087890625,674.1886384094238,121.88810087890624,674.1660384094238Q121.86188087890625,674.1434384094239,121.84057087890625,674.1161384094238Q121.81927087890625,674.0889384094238,121.80369087890625,674.0580384094238Q121.78812087890626,674.0271384094239,121.77887087890625,673.9937384094238Q121.76962087890625,673.9604384094239,121.76705087890625,673.9259384094238Q121.76448487890625,673.8914384094238,121.76870087890624,673.8570384094238Q121.77291087890625,673.8227384094238,121.78375087890625,673.7898384094239Q121.79458087890625,673.7569384094238,121.81162087890625,673.7268384094239ZM123.49946087890625,670.7432384094238L124.17460087890625,669.5498384094238Q124.19164087890626,669.5196384094238,124.21422087890625,669.4934384094238Q124.23681087890625,669.4672384094238,124.26408087890626,669.4459384094238Q124.29134087890625,669.4246384094238,124.32224087890626,669.4090384094238Q124.35314087890625,669.3934384094239,124.38649087890624,669.3842384094238Q124.41983087890625,669.3749384094239,124.45434087890625,669.3724384094238Q124.48885087890625,669.3698384094238,124.52320087890625,669.3740384094239Q124.55754087890625,669.3782384094238,124.59041087890625,669.3891384094238Q124.62327087890625,669.3999384094238,124.65339087890625,669.4169384094238Q124.68351087890625,669.4340384094238,124.70972087890625,669.4566384094238Q124.73594087890625,669.4792384094238,124.75725087890625,669.5064384094238Q124.77855087890624,669.5337384094238,124.79413087890624,669.5646384094239Q124.80971087890624,669.5955384094239,124.81896087890625,669.6288384094238Q124.82820087890624,669.6622384094238,124.83077087890625,669.6967384094238Q124.83334087890626,669.7312384094238,124.82912087890625,669.7655384094238Q124.82491087890625,669.7999384094238,124.81407087890625,669.8328384094239Q124.80324087890625,669.8656384094238,124.78620087890624,669.8957384094239L124.11106087890624,671.0892384094238Q124.09402087890625,671.1193384094238,124.07144087890624,671.1455384094238Q124.04885087890625,671.1717384094238,124.02158087890625,671.1930384094238Q123.99432087890625,671.2143384094238,123.96342087890625,671.2299384094239Q123.93252087890625,671.2455384094238,123.89917087890625,671.2547384094238Q123.86583087890625,671.2640384094238,123.83132087890625,671.2666384094239Q123.79681087890626,671.2691384094238,123.76246087890625,671.2649384094238Q123.72812087890625,671.2607384094239,123.69525087890625,671.2499384094239Q123.66239087890625,671.2390384094239,123.63227087890625,671.2220384094238Q123.60215087890624,671.2050384094239,123.57594087890625,671.1824384094239Q123.54972087890626,671.1598384094239,123.52841087890624,671.1325384094238Q123.50711087890625,671.1052384094238,123.49153087890625,671.0743384094238Q123.47596087890625,671.0434384094239,123.46671087890626,671.0101384094238Q123.45746087890625,670.9768384094239,123.45489087890626,670.9422384094238Q123.45232087890625,670.9077384094238,123.45654087890625,670.8734384094238Q123.46075087890625,670.8390384094238,123.47159087890626,670.8062384094238Q123.48242087890625,670.7733384094238,123.49946087890625,670.7432384094238ZM125.18730087890626,667.7596384094238L125.86244087890626,666.5661384094238Q125.87948087890625,666.5360384094238,125.90206087890625,666.5098384094239Q125.92465087890625,666.4836384094239,125.95192087890625,666.4623384094239Q125.97918087890625,666.4410384094239,126.01008087890625,666.4254384094238Q126.04098087890625,666.4098384094239,126.07433087890625,666.4006384094238Q126.10767087890625,666.3913384094238,126.14218087890625,666.3887384094238Q126.17669087890624,666.3862384094239,126.21104087890625,666.3904384094238Q126.24538087890625,666.3946384094238,126.27825087890625,666.4054384094238Q126.31111087890625,666.4163384094238,126.34123087890625,666.4333384094239Q126.37135087890626,666.4503384094238,126.39757087890625,666.4729384094238Q126.42378087890626,666.4955384094238,126.44509087890626,666.5228384094238Q126.46639087890625,666.5501384094239,126.48197087890625,666.5810384094239Q126.49755087890625,666.6119384094238,126.50680087890625,666.6452384094239Q126.51605087890626,666.6785384094238,126.51861087890624,666.7131384094238Q126.52118087890625,666.7476384094239,126.51696087890625,666.7819384094238Q126.51275087890625,666.8163384094238,126.50191087890624,666.8491384094239Q126.49108087890625,666.8820384094238,126.47404087890625,666.9121384094238L125.79890087890625,668.1056384094238Q125.78187087890625,668.1357384094239,125.75928087890625,668.1619384094238Q125.73669087890624,668.1881384094238,125.70943087890625,668.2094384094238Q125.68216087890625,668.2307384094238,125.65126087890624,668.2463384094239Q125.62036087890625,668.2619384094238,125.58701087890626,668.2711384094239Q125.55367087890625,668.2804384094238,125.51916087890625,668.2829384094239Q125.48465087890625,668.2855384094238,125.45031087890625,668.2813384094238Q125.41596087890625,668.2771384094239,125.38309087890624,668.2662384094239Q125.35023087890625,668.2554384094238,125.32011087890625,668.2384384094238Q125.28999087890625,668.2213384094239,125.26378087890625,668.1987384094239Q125.23756087890625,668.1761384094239,125.21626087890625,668.1489384094239Q125.19495087890625,668.1216384094238,125.17937087890625,668.0907384094238Q125.16380087890624,668.0598384094238,125.15455087890625,668.0265384094238Q125.14530087890626,667.9931384094239,125.14273087890625,667.9586384094239Q125.14017087890625,667.9241384094238,125.14438087890625,667.8898384094239Q125.14860087890625,667.8554384094239,125.15943087890625,667.8226384094238Q125.17027087890625,667.7897384094239,125.18730087890626,667.7596384094238ZM126.87514087890625,664.7759384094238L127.55028087890625,663.5825384094238Q127.56732087890624,663.5524384094239,127.58990087890625,663.5262384094239Q127.61249087890624,663.4999384094239,127.63976087890624,663.4786384094239Q127.66703087890625,663.4573384094239,127.69793087890625,663.4418384094238Q127.72883087890625,663.4262384094238,127.76217087890625,663.4169384094238Q127.79552087890625,663.4077384094238,127.83002087890625,663.4051384094238Q127.86453087890625,663.4025384094239,127.89888087890625,663.4068384094238Q127.93322087890625,663.4110384094238,127.96609087890624,663.4218384094238Q127.99895087890624,663.4326384094238,128.02907087890625,663.4497384094238Q128.05919087890624,663.4667384094238,128.08541087890626,663.4893384094238Q128.11162087890625,663.5119384094238,128.13293087890625,663.5392384094238Q128.15423087890625,663.5664384094239,128.16981087890625,663.5973384094239Q128.18539087890625,663.6282384094238,128.19464087890626,663.6616384094239Q128.20389087890624,663.6949384094238,128.20645087890625,663.7294384094238Q128.20902087890624,663.7639384094239,128.20480087890624,663.7983384094239Q128.20059087890624,663.8326384094238,128.18975087890624,663.8655384094238Q128.17892087890624,663.8984384094239,128.16188087890626,663.9285384094238L127.48674087890625,665.1219384094238Q127.46971087890626,665.1520384094239,127.44712087890625,665.1783384094239Q127.42453087890625,665.2045384094238,127.39726087890625,665.2258384094239Q127.37000087890625,665.2471384094239,127.33910087890625,665.2627384094238Q127.30820087890625,665.2782384094238,127.27485087890625,665.2875384094239Q127.24151087890625,665.2967384094238,127.20700087890626,665.2993384094239Q127.17249087890625,665.3019384094239,127.13814087890626,665.2977384094238Q127.10380087890626,665.2934384094239,127.07093087890625,665.2826384094238Q127.03807087890625,665.2718384094238,127.00795087890626,665.2547384094238Q126.97783087890625,665.2377384094239,126.95162087890625,665.2151384094238Q126.92540087890625,665.1925384094238,126.90410087890625,665.1653384094238Q126.88279087890625,665.1380384094239,126.86721087890625,665.1071384094238Q126.85164087890625,665.0762384094238,126.84239087890624,665.0428384094238Q126.83314087890625,665.0095384094238,126.83057087890624,664.9750384094239Q126.82800087890625,664.9405384094239,126.83222087890626,664.9061384094239Q126.83643087890626,664.8718384094238,126.84727087890624,664.8389384094238Q126.85811087890625,664.8061384094239,126.87514087890625,664.7759384094238ZM128.56299087890625,661.7923384094238L129.23812087890624,660.5989384094238Q129.25516087890625,660.5687384094239,129.27775087890626,660.5425384094239Q129.30033087890624,660.5163384094238,129.32760087890625,660.4950384094238Q129.35487087890624,660.4737384094238,129.38577087890624,660.4581384094238Q129.41666087890624,660.4425384094238,129.45001087890626,660.4333384094239Q129.48335087890626,660.4240384094238,129.51786087890625,660.4215384094239Q129.55237087890626,660.4189384094238,129.58672087890625,660.4231384094238Q129.62106087890626,660.4273384094238,129.65393087890624,660.4382384094238Q129.68679087890624,660.4490384094238,129.71691087890625,660.4661384094238Q129.74703087890626,660.4831384094239,129.77324087890625,660.5057384094239Q129.79946087890625,660.5283384094238,129.82077087890625,660.5555384094238Q129.84207087890624,660.5828384094239,129.85765087890624,660.6137384094238Q129.87323087890624,660.6446384094238,129.88248087890625,660.6779384094239Q129.89172087890626,660.7113384094238,129.89429087890625,660.7458384094239Q129.89686087890624,660.7803384094238,129.89264087890626,660.8147384094239Q129.88843087890626,660.8490384094239,129.87759087890626,660.8819384094238Q129.86676087890626,660.9147384094239,129.84972087890625,660.9448384094238L129.17458087890626,662.1383384094238Q129.15755087890625,662.1684384094239,129.13496087890624,662.1946384094239Q129.11237087890626,662.2208384094238,129.08511087890625,662.2422384094239Q129.05784087890626,662.2635384094239,129.02694087890626,662.2790384094238Q128.99604087890626,662.2946384094238,128.96269087890624,662.3039384094238Q128.92935087890626,662.3131384094238,128.89484087890625,662.3157384094238Q128.86033087890624,662.3182384094239,128.82599087890625,662.3140384094238Q128.79164087890626,662.3098384094238,128.75878087890624,662.2990384094238Q128.72591087890626,662.2881384094238,128.69579087890625,662.2711384094239Q128.66567087890624,662.2541384094238,128.63946087890625,662.2315384094238Q128.61324087890625,662.2089384094238,128.59194087890626,662.1816384094238Q128.57063087890626,662.1544384094238,128.55505087890626,662.1235384094239Q128.53948087890626,662.0926384094238,128.53023087890625,662.0592384094239Q128.52098087890624,662.0259384094238,128.51841087890625,661.9914384094238Q128.51585087890626,661.9569384094239,128.52006087890624,661.9225384094239Q128.52428087890624,661.8882384094238,128.53511087890624,661.8553384094238Q128.54595087890624,661.8224384094239,128.56299087890625,661.7923384094238ZM130.25083087890624,658.8087384094239L130.92595087890624,657.6152384094238Q130.94295087890626,657.5851384094238,130.96555087890624,657.5589384094238Q130.98815087890625,657.5327384094238,131.01545087890625,657.5114384094238Q131.04275087890625,657.4901384094238,131.07365087890625,657.4745384094239Q131.10455087890625,657.4589384094238,131.13785087890625,657.4497384094238Q131.17115087890625,657.4404384094238,131.20575087890626,657.4379384094239Q131.24025087890624,657.4353384094238,131.27455087890624,657.4395384094238Q131.30895087890624,657.4437384094239,131.34175087890625,657.4546384094239Q131.37465087890624,657.4654384094239,131.40475087890624,657.4824384094238Q131.43485087890625,657.4995384094238,131.46105087890624,657.5221384094239Q131.48735087890626,657.5446384094238,131.50865087890625,657.5719384094239Q131.52995087890625,657.5992384094238,131.54545087890625,657.6301384094238Q131.56105087890626,657.6610384094238,131.57035087890625,657.6943384094238Q131.57955087890625,657.7277384094239,131.58215087890625,657.7622384094238Q131.58465087890625,657.7967384094238,131.58045087890625,657.8310384094239Q131.57625087890625,657.8654384094239,131.56545087890626,657.8982384094238Q131.55455087890624,657.9311384094239,131.53755087890625,657.9612384094238L130.86245087890626,659.1547384094238Q130.84535087890626,659.1848384094238,130.82275087890625,659.2110384094238Q130.80025087890624,659.2372384094239,130.77295087890624,659.2585384094239Q130.74568087890626,659.2798384094239,130.71478087890625,659.2954384094238Q130.68388087890625,659.3110384094239,130.65053087890624,659.3202384094238Q130.61719087890626,659.3295384094238,130.58268087890625,659.3321384094238Q130.54817087890626,659.3346384094239,130.51383087890625,659.3304384094238Q130.47948087890626,659.3262384094238,130.44662087890626,659.3154384094238Q130.41375087890626,659.3045384094238,130.38363087890625,659.2875384094239Q130.35352087890624,659.2704384094238,130.32730087890624,659.2479384094238Q130.30108087890625,659.2253384094238,130.27978087890625,659.1980384094238Q130.25847087890625,659.1707384094238,130.24290087890626,659.1398384094239Q130.22732087890626,659.1089384094238,130.21807087890625,659.0756384094238Q130.20882087890624,659.0422384094238,130.20625087890625,659.0077384094238Q130.20369087890626,658.9732384094239,130.20790087890626,658.9389384094238Q130.21212087890626,658.9045384094238,130.22295087890626,658.8717384094239Q130.23379087890626,658.8388384094238,130.25083087890624,658.8087384094239ZM131.93865087890626,655.8251384094239L132.61385087890625,654.6316384094239Q132.63085087890624,654.6015384094238,132.65345087890626,654.5753384094238Q132.67605087890624,654.5491384094238,132.70325087890626,654.5278384094238Q132.73055087890626,654.5064384094238,132.76145087890626,654.4909384094238Q132.79235087890626,654.4753384094238,132.82565087890626,654.4660384094238Q132.85905087890626,654.4568384094239,132.89355087890624,654.4542384094239Q132.92805087890625,654.4517384094238,132.96235087890625,654.4559384094239Q132.99675087890625,654.4601384094238,133.02965087890624,654.4709384094239Q133.06245087890625,654.4818384094239,133.09255087890625,654.4988384094238Q133.12275087890626,654.5158384094238,133.14895087890625,654.5384384094239Q133.17515087890624,654.5610384094239,133.19645087890626,654.5883384094238Q133.21775087890626,654.6155384094238,133.23335087890626,654.6464384094238Q133.24895087890624,654.6773384094238,133.25815087890624,654.7107384094238Q133.26745087890626,654.7440384094239,133.26995087890626,654.7785384094238Q133.27255087890626,654.8131384094238,133.26835087890626,654.8474384094238Q133.26415087890626,654.8817384094239,133.25325087890624,654.9146384094238Q133.24245087890625,654.9475384094238,133.22545087890626,654.9776384094238L132.55025087890624,656.1710384094238Q132.53325087890624,656.2012384094238,132.51065087890626,656.2274384094238Q132.48805087890625,656.2536384094238,132.46075087890625,656.2749384094238Q132.43355087890626,656.2962384094238,132.40265087890626,656.3118384094238Q132.37175087890625,656.3274384094238,132.33835087890625,656.3366384094238Q132.30505087890626,656.3459384094239,132.27055087890625,656.3484384094238Q132.23605087890624,656.3510384094238,132.20165087890626,656.3468384094239Q132.16735087890626,656.3426384094238,132.13445087890625,656.3317384094238Q132.10155087890624,656.3209384094238,132.07145087890626,656.3039384094238Q132.04135087890626,656.2868384094238,132.01515087890624,656.2642384094238Q131.98895087890625,656.2416384094238,131.96765087890626,656.2144384094238Q131.94635087890626,656.1871384094238,131.93075087890625,656.1562384094238Q131.91515087890625,656.1253384094239,131.90595087890625,656.0920384094238Q131.89665087890626,656.0586384094238,131.89405087890626,656.0241384094238Q131.89155087890626,655.9896384094238,131.89575087890626,655.9553384094238Q131.89995087890625,655.9209384094238,131.91075087890624,655.8880384094239Q131.92165087890626,655.8552384094238,131.93865087890626,655.8251384094239ZM133.62655087890624,652.8414384094239L134.30165087890626,651.6480384094239Q134.31865087890625,651.6179384094238,134.34125087890624,651.5916384094238Q134.36385087890625,651.5654384094238,134.39115087890625,651.5441384094238Q134.41835087890624,651.5228384094238,134.44925087890624,651.5072384094238Q134.48015087890624,651.4917384094239,134.51355087890624,651.4824384094238Q134.54685087890624,651.4732384094239,134.58135087890625,651.4706384094238Q134.61585087890626,651.4680384094238,134.65025087890626,651.4722384094239Q134.68455087890624,651.4765384094238,134.71745087890625,651.4873384094238Q134.75035087890626,651.4981384094239,134.78045087890624,651.5152384094238Q134.81055087890624,651.5322384094238,134.83675087890626,651.5548384094238Q134.86295087890625,651.5774384094238,134.88425087890624,651.6047384094238Q134.90555087890624,651.6319384094238,134.92115087890625,651.6628384094238Q134.93675087890625,651.6937384094239,134.94595087890625,651.7271384094238Q134.95525087890624,651.7604384094238,134.95785087890624,651.7949384094238Q134.96035087890624,651.8294384094238,134.95615087890624,651.8638384094238Q134.95195087890625,651.8981384094238,134.94115087890626,651.9310384094239Q134.93025087890624,651.9638384094238,134.91325087890624,651.9940384094239L134.23815087890625,653.1874384094239Q134.22105087890625,653.2175384094238,134.19845087890624,653.2437384094238Q134.17585087890626,653.2700384094238,134.14865087890624,653.2913384094238Q134.12135087890624,653.3126384094238,134.09045087890624,653.3282384094239Q134.05955087890624,653.3437384094238,134.02625087890624,653.3530384094238Q133.99285087890624,653.3622384094239,133.95835087890626,653.3648384094238Q133.92385087890625,653.3674384094238,133.88955087890625,653.3631384094239Q133.85515087890624,653.3589384094238,133.82225087890626,653.3481384094239Q133.78945087890625,653.3373384094239,133.75935087890625,653.3202384094238Q133.72915087890624,653.3032384094238,133.70295087890625,653.2806384094238Q133.67675087890626,653.2580384094239,133.65545087890624,653.2307384094238Q133.63415087890624,653.2035384094238,133.61855087890626,653.1726384094238Q133.60295087890626,653.1417384094239,133.59375087890623,653.1083384094238Q133.58445087890624,653.0750384094239,133.58195087890624,653.0405384094238Q133.57935087890624,653.0060384094238,133.58355087890624,652.9716384094238Q133.58775087890626,652.9373384094238,133.59865087890626,652.9044384094238Q133.60945087890624,652.8716384094238,133.62655087890624,652.8414384094239ZM135.31435087890625,649.8578384094238L135.98945087890624,648.6643884094239Q136.00655087890624,648.6342784094238,136.02915087890625,648.6080584094238Q136.05165087890626,648.5818384094239,136.07895087890626,648.5605384094238Q136.10625087890625,648.5392284094238,136.13715087890625,648.5236484094238Q136.16805087890626,648.5080784094238,136.20135087890625,648.4988284094238Q136.23475087890625,648.4895784094239,136.26925087890626,648.4870084094239Q136.30375087890624,648.4844484094239,136.33805087890624,648.4886584094238Q136.37245087890625,648.4928784094238,136.40525087890626,648.5037084094238Q136.43815087890624,648.5145484094238,136.46825087890625,648.5315884094239Q136.49835087890625,648.5486184094239,136.52465087890624,648.5712084094238Q136.55085087890626,648.5937984094238,136.57215087890626,648.6210584094239Q136.59345087890625,648.6483284094238,136.60905087890626,648.6792284094238Q136.62455087890626,648.7101284094239,136.63385087890626,648.7434684094238Q136.64305087890625,648.7768184094239,136.64565087890625,648.8113284094238Q136.64825087890625,648.8458284094238,136.64405087890626,648.8801784094238Q136.63975087890626,648.9145284094238,136.62895087890624,648.9473884094239Q136.61815087890625,648.9802584094239,136.60105087890625,649.0103784094239L135.92595087890624,650.2038284094239Q135.90895087890624,650.2339384094238,135.88635087890626,650.2601584094239Q135.86375087890625,650.2863684094239,135.83645087890625,650.3076784094238Q135.80925087890625,650.3289884094238,135.77835087890625,650.3445584094238Q135.74745087890625,650.3601384094238,135.71405087890625,650.3693884094238Q135.68075087890625,650.3786384094238,135.64625087890624,650.3812084094238Q135.61165087890626,650.3837684094239,135.57735087890626,650.3795584094238Q135.54305087890626,650.3753384094239,135.51015087890624,650.3645084094238Q135.47725087890626,650.3536684094238,135.44715087890626,650.3366384094238Q135.41705087890625,650.3195984094239,135.39085087890624,650.2970084094238Q135.36465087890625,650.2744184094238,135.34325087890625,650.2471584094238Q135.32195087890625,650.2198884094238,135.30645087890625,650.1889884094238Q135.29085087890624,650.1580884094238,135.28155087890624,650.1247484094238Q135.27235087890625,650.0913984094238,135.26975087890625,650.0568884094238Q135.26725087890625,650.0223784094238,135.27145087890625,649.9880384094238Q135.27565087890625,649.9536884094239,135.28645087890624,649.9208284094238Q135.29735087890626,649.8879584094238,135.31435087890625,649.8578384094238ZM137.00215087890626,646.8742184094239L137.67735087890625,645.6807584094238Q137.69435087890625,645.6506484094239,137.71695087890626,645.6244284094238Q137.73955087890624,645.5982084094238,137.76685087890624,645.5769084094238Q137.79405087890626,645.5555984094239,137.82495087890624,645.5400284094238Q137.85585087890624,645.5244484094238,137.88925087890624,645.5151984094239Q137.92255087890624,645.5059484094238,137.95705087890624,645.5033784094238Q137.99155087890625,645.5008184094238,138.02595087890626,645.5050284094239Q138.06025087890626,645.5092484094238,138.09315087890624,645.5200784094238Q138.12595087890625,645.5309184094239,138.15615087890626,645.5479584094238Q138.18625087890626,645.5649884094238,138.21245087890625,645.5875784094238Q138.23865087890624,645.6101684094239,138.25995087890624,645.6374284094238Q138.28125087890623,645.6646984094239,138.29685087890624,645.6955984094238Q138.31245087890625,645.7264984094238,138.32165087890624,645.7598484094239Q138.33095087890626,645.7931884094238,138.33345087890626,645.8276984094239Q138.33605087890624,645.8622084094238,138.33185087890624,645.8965484094239Q138.32765087890624,645.9308984094238,138.31675087890625,645.9637584094238Q138.30595087890626,645.9966284094238,138.28895087890623,646.0267484094238L137.61375087890625,647.2201984094238Q137.59675087890625,647.2503184094238,137.57415087890624,647.2765284094238Q137.55155087890626,647.3027484094239,137.52435087890626,647.3240484094239Q137.49705087890624,647.3453584094239,137.46615087890626,647.3609384094239Q137.43525087890626,647.3765084094239,137.40185087890626,647.3857584094238Q137.36855087890626,647.3950084094238,137.33405087890625,647.3975784094238Q137.29955087890625,647.4001484094239,137.26515087890624,647.3959284094238Q137.23085087890624,647.3917184094238,137.19795087890625,647.3808784094239Q137.16515087890625,647.3700484094238,137.13495087890624,647.3530084094239Q137.10485087890626,647.3359684094238,137.07865087890625,647.3133784094239Q137.05245087890626,647.2907984094238,137.03115087890626,647.2635284094239Q137.00985087890626,647.2362584094238,136.99425087890626,647.2053584094239Q136.97865087890625,647.1744584094238,136.96945087890626,647.1411184094238Q136.96015087890626,647.1077684094238,136.95765087890624,647.0732584094238Q136.95505087890626,647.0387584094238,136.95925087890626,647.0044084094238Q136.96345087890626,646.9700584094238,136.97435087890625,646.9371984094238Q136.98515087890624,646.9043384094239,137.00215087890626,646.8742184094239ZM138.69005087890625,643.8905884094238L139.36515087890626,642.6971384094238Q139.38225087890626,642.6670184094238,139.40475087890624,642.6407984094238Q139.42735087890625,642.6145784094239,139.45465087890625,642.5932784094239Q139.48195087890625,642.5719684094238,139.51285087890625,642.5563984094239Q139.54375087890625,642.5408184094239,139.57705087890625,642.5315684094238Q139.61045087890625,642.5223184094239,139.64495087890626,642.5197484094239Q139.67945087890624,642.5171884094239,139.71375087890624,642.5213984094238Q139.74815087890624,642.5256184094238,139.78095087890625,642.5364484094239Q139.81385087890624,642.5472884094238,139.84395087890624,642.5643284094239Q139.87405087890625,642.5813584094238,139.90025087890626,642.6039484094239Q139.92655087890626,642.6265384094238,139.94785087890625,642.6537984094239Q139.96915087890625,642.6810684094238,139.98465087890625,642.7119684094238Q140.00025087890626,642.7428684094239,140.00955087890625,642.7762184094238Q140.01875087890625,642.8095584094239,140.02135087890625,642.8440684094238Q140.02395087890625,642.8785784094239,140.01965087890625,642.9129184094238Q140.01545087890625,642.9472684094238,140.00465087890626,642.9801284094239Q139.99385087890624,643.0129984094239,139.97675087890624,643.0431184094239L139.30165087890626,644.2365684094239Q139.28455087890626,644.2666884094239,139.26205087890625,644.2928984094239Q139.23945087890624,644.3191184094238,139.21215087890624,644.3404184094238Q139.18485087890625,644.3617284094238,139.15395087890624,644.3773084094238Q139.12305087890624,644.3928784094238,139.08975087890624,644.4021284094239Q139.05635087890624,644.4113784094238,139.02185087890626,644.4139484094238Q138.98735087890626,644.4165084094238,138.95305087890625,644.4122984094238Q138.91865087890625,644.4080784094239,138.88585087890624,644.3972484094238Q138.85295087890626,644.3864184094239,138.82285087890625,644.3693784094238Q138.79275087890625,644.3523384094239,138.76655087890626,644.3297484094238Q138.74025087890624,644.3071684094239,138.71895087890624,644.2798984094238Q138.69765087890624,644.2526284094238,138.68205087890624,644.2217284094238Q138.66655087890626,644.1908284094238,138.65725087890624,644.1574884094239Q138.64805087890625,644.1241384094238,138.64545087890625,644.0896284094239Q138.64285087890624,644.0551184094238,138.64715087890625,644.0207784094239Q138.65135087890624,643.9864284094239,138.66215087890626,643.9535684094238Q138.67295087890625,643.9206984094238,138.69005087890625,643.8905884094238ZM140.37785087890626,640.9069604094238L140.71545087890624,640.3102364094239Q140.71545087890624,640.3102364094239,140.73875087890625,640.3234044094238Q140.76195087890625,640.3365724094239,140.80505087890626,640.3609044094238Q140.84805087890624,640.3852360094238,140.90425087890625,640.4170269094238Q140.96045087890624,640.4488176894238,141.02125087890624,640.4832278094239Q141.08205087890624,640.5176380094239,141.13825087890626,640.5494284094239Q141.19445087890625,640.5812194094239,141.23745087890626,640.6055514094238Q141.28045087890627,640.6298834094239,141.30375087890624,640.6430514094238Q141.32705087890625,640.6562194094238,141.32705087890625,640.6562194094238L140.98945087890624,641.2529434094238Q140.97245087890624,641.2830624094238,140.94985087890626,641.3092784094239Q140.92725087890625,641.3354944094239,140.89995087890625,641.3567994094238Q140.87275087890626,641.3781054094238,140.84185087890626,641.3936824094238Q140.81095087890625,641.4092594094238,140.77755087890625,641.4185084094238Q140.74425087890626,641.4277574094239,140.70975087890625,641.4303244094239Q140.67525087890624,641.4328904094239,140.64085087890624,641.4286754094238Q140.60655087890626,641.4244594094238,140.57365087890625,641.4136244094238Q140.54075087890624,641.4027904094238,140.51065087890626,641.3857514094238Q140.48055087890626,641.3687134094238,140.45435087890624,641.3461274094238Q140.42815087890625,641.3235404094238,140.40685087890625,641.2962734094239Q140.38555087890626,641.2690064094238,140.36995087890625,641.2381064094238Q140.35435087890625,641.2072064094239,140.34515087890625,641.1738614094238Q140.33585087890626,641.1405164094239,140.33325087890626,641.1060084094238Q140.33075087890626,641.0714994094238,140.33495087890626,641.0371534094238Q140.33915087890625,641.0028074094238,140.34995087890624,640.9699434094239Q140.36085087890626,640.9370794094239,140.37785087890626,640.9069604094238ZM121.11715087890624,676.2867384094238Q121.11715087890624,676.3212384094238,121.11042587890626,676.3550384094239Q121.10370087890625,676.3888384094238,121.09050887890625,676.4207384094238Q121.07731687890625,676.4525384094238,121.05816487890625,676.4812384094238Q121.03901387890625,676.5098384094239,121.01463787890626,676.5342384094238Q120.99026287890625,676.5586384094238,120.96160087890625,676.5777384094238Q120.93293787890624,676.5969384094238,120.90108987890625,676.6101384094238Q120.86924187890625,676.6233384094238,120.83543247890626,676.6300384094238Q120.80162287890624,676.6367384094239,120.76715087890625,676.6367384094239Q120.73267887890626,676.6367384094239,120.69886927890624,676.6300384094238Q120.66505987890625,676.6233384094238,120.63321187890625,676.6101384094238Q120.60136387890626,676.5969384094238,120.57270087890625,676.5777384094238Q120.54403887890625,676.5586384094238,120.51966387890624,676.5342384094238Q120.49528787890625,676.5098384094239,120.47613687890625,676.4812384094238Q120.45698487890625,676.4525384094238,120.44379287890625,676.4207384094238Q120.43060087890625,676.3888384094238,120.42387587890624,676.3550384094239Q120.41715087890626,676.3212384094238,120.41715087890626,676.2867384094238Q120.41715087890626,676.2523384094238,120.42387587890624,676.2184384094238Q120.43060087890625,676.1846384094238,120.44379287890625,676.1528384094238Q120.45698487890625,676.1209384094238,120.47613687890625,676.0923384094239Q120.49528787890625,676.0636384094238,120.51966387890624,676.0392384094239Q120.54403887890625,676.0149384094238,120.57270087890625,675.9957384094238Q120.60136387890626,675.9766384094238,120.63321187890625,675.9634384094238Q120.66505987890625,675.9502384094238,120.69886927890624,675.9434384094238Q120.73267887890626,675.9367384094238,120.76715087890625,675.9367384094238Q120.80162287890624,675.9367384094238,120.83543247890626,675.9434384094238Q120.86924187890625,675.9502384094238,120.90108987890625,675.9634384094238Q120.93293787890624,675.9766384094238,120.96160087890625,675.9957384094238Q120.99026287890625,676.0149384094238,121.01463787890626,676.0392384094239Q121.03901387890625,676.0636384094238,121.05816487890625,676.0923384094239Q121.07731687890625,676.1209384094238,121.09050887890625,676.1528384094238Q121.10370087890625,676.1846384094238,121.11042587890626,676.2184384094238Q121.11715087890624,676.2523384094238,121.11715087890624,676.2867384094238ZM141.37125087890624,640.4832278094239Q141.37125087890624,640.5176998094238,141.36455087890624,640.5515094094238Q141.35775087890624,640.5853194094238,141.34455087890626,640.6171674094238Q141.33135087890625,640.6490154094238,141.31225087890624,640.6776774094238Q141.29305087890626,640.7063394094238,141.26875087890625,640.7307154094239Q141.24435087890626,640.7550904094238,141.21565087890625,640.7742424094238Q141.18705087890623,640.7933934094239,141.15515087890626,640.8065854094239Q141.12335087890625,640.8197774094239,141.08955087890624,640.8265024094238Q141.05575087890625,640.8332274094238,141.02125087890624,640.8332274094238Q140.98675087890626,640.8332274094238,140.95295087890625,640.8265024094238Q140.91915087890624,640.8197774094239,140.88725087890626,640.8065854094239Q140.85545087890625,640.7933934094239,140.82675087890624,640.7742424094238Q140.79815087890626,640.7550904094238,140.77375087890624,640.7307154094239Q140.74935087890626,640.7063394094238,140.73025087890625,640.6776774094238Q140.71105087890624,640.6490154094238,140.69785087890625,640.6171674094238Q140.68465087890624,640.5853194094238,140.67795087890624,640.5515094094238Q140.67125087890625,640.5176998094238,140.67125087890625,640.4832278094239Q140.67125087890625,640.4487558294238,140.67795087890624,640.4149462094239Q140.68465087890624,640.3811366094238,140.69785087890625,640.3492886094239Q140.71105087890624,640.3174404094239,140.73025087890625,640.2887784094238Q140.74935087890626,640.2601154094239,140.77375087890624,640.2357404094238Q140.79815087890626,640.2113654094238,140.82675087890624,640.1922134094239Q140.85545087890625,640.1730614094238,140.88725087890626,640.1598704094238Q140.91915087890624,640.1466784094239,140.95295087890625,640.1399534094238Q140.98675087890626,640.1332274094239,141.02125087890624,640.1332274094239Q141.05575087890625,640.1332274094239,141.08955087890624,640.1399534094238Q141.12335087890625,640.1466784094239,141.15515087890626,640.1598704094238Q141.18705087890623,640.1730614094238,141.21565087890625,640.1922134094239Q141.24435087890626,640.2113654094238,141.26875087890625,640.2357404094238Q141.29305087890626,640.2601154094239,141.31225087890624,640.2887784094238Q141.33135087890625,640.3174404094239,141.34455087890626,640.3492886094239Q141.35775087890624,640.3811366094238,141.36455087890624,640.4149462094239Q141.37125087890624,640.4487558294238,141.37125087890624,640.4832278094239Z" fill="#BACAD9" fill-opacity="1"/></g><g style="mix-blend-mode:passthrough" transform="matrix(0.8660253882408142,0.5,-0.5,0.8660253882408142,330.72168754218364,-18.693337782529852)"><g style="opacity:0.44999998807907104;mix-blend-mode:passthrough"><ellipse cx="209.37792968750006" cy="616.9160718917847" rx="9.13482666015625" ry="9.127680778503418" fill="#CFDAE6" fill-opacity="1"/></g><g style="mix-blend-mode:passthrough" transform="matrix(-1,0,0,-1,437.0255126953125,1252.0875053405762)"><path d="M236.78245634765625,635.1714326702881C236.78245634765625,630.1303526702881,232.69265634765625,626.0437526702881,227.64758634765624,626.0437526702881C222.60255634765625,626.0437526702881,218.51275634765625,630.1303526702881,218.51275634765625,635.1714326702881L236.78245634765625,635.1714326702881Z" fill-rule="evenodd" fill="#CFDAE6" fill-opacity="1"/></g></g></g><g style="mix-blend-mode:passthrough" transform="matrix(0.9961947202682495,-0.08715574443340302,0.08715574443340302,0.9961947202682495,-9.627678218600636,15.789002910280942)"><g style="opacity:0.25;mix-blend-mode:passthrough"><ellipse cx="205.1176471710205" cy="147.28974151611328" rx="29.117647171020508" ry="29.140243530273438" fill="#CFDAE5" fill-opacity="1"/></g><g style="opacity:0.30000001192092896;mix-blend-mode:passthrough"><ellipse cx="205.11764812469482" cy="147.28974151611328" rx="21.568628311157227" ry="21.585365295410156" fill="#CFDAE6" fill-opacity="1"/></g><g style="opacity:0.4000000059604645;mix-blend-mode:passthrough"><ellipse cx="355.01960372924805" cy="256.2958354949951" rx="23.72549057006836" ry="23.7439022064209" fill-opacity="0" stroke-opacity="0.4000000059604645" stroke="#CFDAE6" fill="none" stroke-width="1"/></g><g style="opacity:0.5;mix-blend-mode:passthrough"><ellipse cx="205.11764812469482" cy="147.28974151611328" rx="10.784314155578613" ry="10.792682647705078" fill="#BACAD9" fill-opacity="1"/></g><g style="mix-blend-mode:passthrough"><path d="M205.1176339691162,158.0824588684082L205.1176339691162,136.4970588684082C199.16163396911622,136.4970588684082,194.3333339691162,141.3291088684082,194.3333339691162,147.2897588684082C194.3333339691162,153.2503588684082,199.16163396911622,158.0824588684082,205.1176339691162,158.0824588684082Z" fill-rule="evenodd" fill="#BACAD9" fill-opacity="1"/></g><g style="opacity:0.44999998807907104;mix-blend-mode:passthrough"><g style="opacity:0.44999998807907104;mix-blend-mode:passthrough"><ellipse cx="355.0196146965027" cy="256.29583835601807" rx="6.470588207244873" ry="6.47560977935791" fill="#E6A1A6" fill-opacity="1"/></g><g style="mix-blend-mode:passthrough" transform="matrix(-1,0,0,1,710.0392293930054,0)"><path d="M355.0196146965028,262.7714285766601C358.59322469650266,262.7714285766601,361.4902046965027,259.8722285766602,361.4902046965027,256.2958385766602C361.4902046965027,252.71945857666014,358.59322469650266,249.82022857666016,355.0196146965028,249.82022857666016L355.0196146965028,262.7714285766601Z" fill-rule="evenodd" fill="#E5A1A6" fill-opacity="1"/></g></g><g style="mix-blend-mode:passthrough"><ellipse cx="394.38235652446747" cy="256.83547806739807" rx="1.6176470518112183" ry="1.6189024448394775" fill="#CFDAE6" fill-opacity="1"/></g><g style="opacity:0.3499999940395355;mix-blend-mode:passthrough"><ellipse cx="355.5588244199753" cy="293.53059220314026" rx="1.6176470518112183" ry="1.6189024448394775" fill="#E0B4B7" fill-opacity="1"/></g><g style="opacity:0.3499999940395355;mix-blend-mode:passthrough"><ellipse cx="356.09804010391235" cy="220.6799829006195" rx="2.156862735748291" ry="2.158536672592163" fill="#E0B4B7" fill-opacity="1"/></g><g style="opacity:0.800000011920929;mix-blend-mode:passthrough"><path d="M346.85803874206545,251.43031109619142L204.70533704206542,148.5216710961914L205.29173774206544,147.7116480961914L347.44403874206546,250.62031109619141L346.85803874206545,251.43031109619142Z" fill="#CFDAE6" fill-opacity="1"/></g></g><g style="opacity:0.7999999523162842;mix-blend-mode:passthrough" transform="matrix(0.9816271662712097,-0.1908089965581894,0.1908089965581894,0.9816271662712097,4.241871278239842,211.04230863190878)"><g style="mix-blend-mode:passthrough"><ellipse cx="1141.813557624817" cy="115.49449253082275" rx="11.186440467834473" ry="11.29411792755127" fill-opacity="0" stroke-opacity="1" stroke="#CFDAE6" fill="none" stroke-width="0.9411764740943909"/></g><g style="mix-blend-mode:passthrough"><g style="opacity:0.44999998807907104;mix-blend-mode:passthrough"><ellipse cx="1141.7821207046509" cy="115.49449062347412" rx="8.474575996398926" ry="8.55614948272705" fill="#BACAD9" fill-opacity="1"/></g><g style="mix-blend-mode:passthrough"><path d="M1141.7821216583252,124.05064114074708C1146.4625016583252,124.05064114074708,1150.2567016583253,120.21994114074707,1150.2567016583253,115.49449114074707C1150.2567016583253,110.76906114074707,1146.4625016583252,106.93834114074707,1141.7821216583252,106.93834114074707L1141.7821216583252,124.05064114074708Z" fill-rule="evenodd" fill="#BACAD9" fill-opacity="1"/></g></g><g style="mix-blend-mode:passthrough"><path d="M1103.98455497641,87.87638786853027L1132.92766097641,107.91728086853027L1132.3918609764098,108.69108086853028L1103.4487669764098,88.65017386853027L1103.98455497641,87.87638786853027Z" fill="#CFDAE6" fill-opacity="1"/></g><g style="mix-blend-mode:passthrough"><ellipse cx="1101.262711763382" cy="86.78860926628113" rx="3.262711763381958" ry="3.2941176891326904" fill-opacity="0" stroke-opacity="1" stroke="#CFDAE6" fill="none" stroke-width="0.9411764740943909"/></g><g style="mix-blend-mode:passthrough"><ellipse cx="1100.7966101169586" cy="144.67096066474915" rx="2.796610116958618" ry="2.8235294818878174" fill="#F7E1AD" fill-opacity="1"/></g><g style="mix-blend-mode:passthrough"><path d="M1102.795600820526,142.89276223754882L1132.3631668205262,122.39998923754882L1132.899266820526,123.17353523754883L1103.3317328205262,143.66636223754884L1102.795600820526,142.89276223754882Z" fill="#CFDAE6" fill-opacity="1"/></g></g><g style="opacity:0.8500000238418579;mix-blend-mode:passthrough" transform="matrix(0.9612616896629333,-0.27563735842704773,0.27563735842704773,0.9612616896629333,-60.767914923825174,61.66481112357633)"><g style="mix-blend-mode:passthrough"><ellipse cx="208.99999976158142" cy="267.02549719810486" rx="17.39130401611328" ry="17.39130401611328" fill-opacity="0" stroke-opacity="1" stroke="#CFDAE6" fill="none" stroke-width="0.800000011920929"/></g><g style="mix-blend-mode:passthrough"><path d="M201.29483054443358,252.93495013969422Q197.83048054443358,254.82631013969421,195.6312927305336,258.1108701396942L196.2815945444336,258.5462801396942Q198.3739805444336,255.42123013969422,201.6698505444336,253.6218601396942Q205.0711305444336,251.7649261396942,208.97187054443359,251.7649271396942L208.97187054443359,250.9823183116942Q204.8714105444336,250.98231863969423,201.29483054443358,252.93495013969422ZM216.9883705444336,280.9256201396942Q220.5860705444336,278.8464201396942,222.7288705444336,275.2848201396942L222.05827054443358,274.8813201396942Q220.0195705444336,278.2698201396942,216.59677054443358,280.24802013969423Q213.0698705444336,282.2863201396942,208.9719705444336,282.2863201396942L208.9719705444336,283.0689201396942Q213.2797705444336,283.0689201396942,216.9883705444336,280.9256201396942Z" fill-rule="evenodd" fill="#DDE4EB" fill-opacity="1"/></g><g style="mix-blend-mode:passthrough"><ellipse cx="208.99999976158142" cy="249.63419318199158" rx="2.6086957454681396" ry="2.6086957454681396" fill="#F0F2F5" fill-opacity="1"/><ellipse cx="208.99999976158142" cy="249.63419318199158" rx="2.6086957454681396" ry="2.6086957454681396" fill-opacity="0" stroke-opacity="1" stroke="#CFDAE6" fill="none" stroke-width="0.8695651888847351"/></g><g style="mix-blend-mode:passthrough"><ellipse cx="226.3913037776947" cy="267.02549719810486" rx="2.6086957454681396" ry="2.6086957454681396" fill="#CFDAE6" fill-opacity="1"/></g><g style="mix-blend-mode:passthrough"><ellipse cx="191.60869574546814" cy="267.02549719810486" rx="2.6086957454681396" ry="2.6086957454681396" fill="#F7E1AD" fill-opacity="1"/></g><g style="mix-blend-mode:passthrough"><ellipse cx="208.99999976158142" cy="284.41680121421814" rx="2.6086957454681396" ry="2.6086957454681396" fill="#CFDAE6" fill-opacity="1"/></g></g><g style="opacity:0.32999998331069946;mix-blend-mode:passthrough" transform="matrix(0.9848077297210693,-0.1736481785774231,0.1736481785774231,0.9848077297210693,-55.83612815858396,215.032811461635)"><g style="mix-blend-mode:passthrough" transform="matrix(0.08715574443340302,-0.9961947202682495,0.9961947202682495,0.08715574443340302,673.5041788842793,1819.066279221738)"><g style="opacity:0.44999998807907104;mix-blend-mode:passthrough"><ellipse cx="1340.9999952316284" cy="553.699366569519" rx="11.666666984558105" ry="11.666666984558105" fill="#BACAD9" fill-opacity="1"/></g><g style="mix-blend-mode:passthrough" transform="matrix(-1,0,0,-1,2705.333324432373,1130.7320671081543)"><path d="M1375.9999622161865,577.0327335540771C1375.9999622161865,570.5893735540772,1370.7766622161864,565.3660335540771,1364.3333622161865,565.3660335540771C1357.8900022161865,565.3660335540771,1352.6666622161865,570.5893735540772,1352.6666622161865,577.0327335540771L1375.9999622161865,577.0327335540771Z" fill-rule="evenodd" fill="#BACAD9" fill-opacity="1"/></g></g><g style="mix-blend-mode:passthrough"><ellipse cx="1402.833333492279" cy="514.1214880943298" rx="5.833333492279053" ry="5.833333492279053" fill="#CFDAE6" fill-opacity="1"/></g><g style="mix-blend-mode:passthrough"><path d="M1356.6463,444.3189014785156L1345.075782,515.5276904785156L1343.924218,515.3405904785157L1355.4947,444.13178787851564L1356.6463,444.3189014785156Z" fill="#BACAD9" fill-opacity="1"/></g><g style="mix-blend-mode:passthrough"><path d="M1328.186,524.7779225402832L1218.219487,464.4662815402832L1218.780513,463.4433635402832L1328.747,523.7550225402832L1328.186,524.7779225402832Z" fill="#BACAD9" fill-opacity="1"/></g><g style="mix-blend-mode:passthrough"><path d="M1327.5917,537.9931433549805L1239.724705,574.6706263549804L1239.5,574.1323263549805L1239.805988,573.6357263549804L1376.241,657.6958263549805L1375.935,658.1928263549805L1375.374,658.3498263549805L1344.341,547.0804863549805L1345.464,546.7670663549804L1376.897,659.4708263549804L1238.22547,574.0322263549805L1327.1422,536.9165093549805L1327.5917,537.9931433549805Z" fill="#CFDAE6" fill-opacity="1"/></g><g style="opacity:0.6000000238418579;mix-blend-mode:passthrough"><path d="M1396.5817282470703,516.4309946020508L1360.9983552470703,526.9263546020508L1360.6683012470703,525.8073546020507L1396.2516282470704,515.3119846020508L1396.5817282470703,516.4309946020508Z" fill="#E0B4B7" fill-opacity="1"/></g><g style="mix-blend-mode:passthrough"><path d="M1440.1914282470702,463.13094241674804L1406.8053202470703,509.1014584167481L1405.8613362470703,508.415958416748L1439.2474282470703,462.44537441674805L1440.1914282470702,463.13094241674804Z" fill="#BACAD9" fill-opacity="1"/></g><g style="mix-blend-mode:passthrough"><path d="M1408.418214,516.5605273549804L1468.0583,558.3758263549805L1467.3885,559.3311263549805L1407.748452,517.5157963549805L1408.418214,516.5605273549804Z" fill="#CFDAE6" fill-opacity="1"/></g><g style="mix-blend-mode:passthrough"><ellipse cx="1357.9166717529297" cy="435.3714904785156" rx="8.75" ry="8.75" fill="#C1D1E0" fill-opacity="1"/></g><g style="mix-blend-mode:passthrough"><ellipse cx="1472.25" cy="562.5381546020508" rx="8.75" ry="8.75" fill="#D3DDE6" fill-opacity="1"/></g><g style="mix-blend-mode:passthrough"><ellipse cx="1240.0833320617676" cy="575.3714904785156" rx="5.25" ry="5.25" fill="#C1D1E0" fill-opacity="1"/></g><g style="mix-blend-mode:passthrough"><ellipse cx="1209.75" cy="459.8714904785156" rx="8.75" ry="8.75" fill="#D1DEED" fill-opacity="0.6000000238418579"/></g><g style="mix-blend-mode:passthrough"><ellipse cx="1444.833333492279" cy="456.9548239707947" rx="5.833333492279053" ry="5.833333492279053" fill="#D1DEED" fill-opacity="0.6000000238418579"/></g><g style="mix-blend-mode:passthrough"><ellipse cx="1376.5833282470703" cy="659.3714904785156" rx="5.25" ry="5.25" fill="#E0B4B7" fill-opacity="1"/></g></g></g></svg>
